MFEM mesh v1.0

#
# MFEM Geometry Types (see mesh/geom.hpp):
#
# POINT       = 0
# SEGMENT     = 1
# TRIANGLE    = 2
# SQUARE      = 3
# TETRAHEDRON = 4
# CUBE        = 5
# PRISM       = 6
# PYRAMID     = 7
#

dimension
1

elements
80
1 1 0 1
1 1 1 2
1 1 2 3
1 1 3 4
1 1 4 5
1 1 5 6
1 1 6 7
1 1 7 8
1 1 8 9
1 1 9 10
1 1 10 11
1 1 11 12
1 1 12 13
1 1 13 14
1 1 14 15
1 1 15 16
1 1 16 17
1 1 17 18
1 1 18 19
1 1 19 20
2 1 20 21
2 1 21 22
2 1 22 23
2 1 23 24
2 1 24 25
2 1 25 26
2 1 26 27
2 1 27 28
2 1 28 29
2 1 29 30
2 1 30 31
2 1 31 32
2 1 32 33
2 1 33 34
2 1 34 35
2 1 35 36
2 1 36 37
2 1 37 38
2 1 38 39
2 1 39 40
2 1 40 41
2 1 41 42
2 1 42 43
2 1 43 44
2 1 44 45
2 1 45 46
2 1 46 47
2 1 47 48
2 1 48 49
2 1 49 50
2 1 50 51
2 1 51 52
2 1 52 53
2 1 53 54
2 1 54 55
2 1 55 56
2 1 56 57
2 1 57 58
2 1 58 59
2 1 59 60
2 1 60 61
2 1 61 62
2 1 62 63
2 1 63 64
2 1 64 65
2 1 65 66
2 1 66 67
2 1 67 68
2 1 68 69
2 1 69 70
2 1 70 71
2 1 71 72
2 1 72 73
2 1 73 74
2 1 74 75
2 1 75 76
2 1 76 77
2 1 77 78
2 1 78 79
2 1 79 80

boundary
2
1 0 0
2 0 80

vertices
81
1
0.0000000
0.0001000
0.0002000
0.0003000
0.0004000
0.0005000
0.0006000
0.0007000
0.0008000
0.0009000
0.0010000
0.0011000
0.0012000
0.0013000
0.0014000
0.0015000
0.0016000
0.0017000
0.0018000
0.0019000
0.0020000
0.0021000
0.0022000
0.0023000
0.0024000
0.0025000
0.0026000
0.0027000
0.0028000
0.0029000
0.0030000
0.0031000
0.0032000
0.0033000
0.0034000
0.0035000
0.0036000
0.0037000
0.0038000
0.0039000
0.0040000
0.0041000
0.0042000
0.0043000
0.0044000
0.0045000
0.0046000
0.0047000
0.0048000
0.0049000
0.0050000
0.0051000
0.0052000
0.0053000
0.0054000
0.0055000
0.0056000
0.0057000
0.0058000
0.0059000
0.0060000
0.0061000
0.0062000
0.0063000
0.0064000
0.0065000
0.0066000
0.0067000
0.0068000
0.0069000
0.0070000
0.0071000
0.0072000
0.0073000
0.0074000
0.0075000
0.0076000
0.0077000
0.0078000
0.0079000
0.0080000

