MFEM mesh v1.0

#
# MFEM Geometry Types (see mesh/geom.hpp):
#
# POINT       = 0
# SEGMENT     = 1
# TRIANGLE    = 2
# SQUARE      = 3
# TETRAHEDRON = 4
# CUBE        = 5
# PRISM       = 6
# PYRAMID     = 7
#

dimension
1

elements
80
1 1 0 1
1 1 1 2
1 1 2 3
1 1 3 4
1 1 4 5
1 1 5 6
1 1 6 7
1 1 7 8
1 1 8 9
1 1 9 10
1 1 10 11
1 1 11 12
1 1 12 13
1 1 13 14
1 1 14 15
1 1 15 16
1 1 16 17
1 1 17 18
1 1 18 19
1 1 19 20
2 1 20 21
2 1 21 22
2 1 22 23
2 1 23 24
2 1 24 25
2 1 25 26
2 1 26 27
2 1 27 28
2 1 28 29
2 1 29 30
2 1 30 31
2 1 31 32
2 1 32 33
2 1 33 34
2 1 34 35
2 1 35 36
2 1 36 37
2 1 37 38
2 1 38 39
2 1 39 40
2 1 40 41
2 1 41 42
2 1 42 43
2 1 43 44
2 1 44 45
2 1 45 46
2 1 46 47
2 1 47 48
2 1 48 49
2 1 49 50
2 1 50 51
2 1 51 52
2 1 52 53
2 1 53 54
2 1 54 55
2 1 55 56
2 1 56 57
2 1 57 58
2 1 58 59
2 1 59 60
2 1 60 61
2 1 61 62
2 1 62 63
2 1 63 64
2 1 64 65
2 1 65 66
2 1 66 67
2 1 67 68
2 1 68 69
2 1 69 70
2 1 70 71
2 1 71 72
2 1 72 73
2 1 73 74
2 1 74 75
2 1 75 76
2 1 76 77
2 1 77 78
2 1 78 79
2 1 79 80

boundary
2
1 0 0
2 0 80

vertices
81
1
0.0000000
0.0000100
0.0000200
0.0000300
0.0000400
0.0000500
0.0000600
0.0000700
0.0000800
0.0000900
0.0001000
0.0001100
0.0001200
0.0001300
0.0001400
0.0001500
0.0001600
0.0001700
0.0001800
0.0001900
0.0002000
0.0002100
0.0002200
0.0002300
0.0002400
0.0002500
0.0002600
0.0002700
0.0002800
0.0002900
0.0003000
0.0003100
0.0003200
0.0003300
0.0003400
0.0003500
0.0003600
0.0003700
0.0003800
0.0003900
0.0004000
0.0004100
0.0004200
0.0004300
0.0004400
0.0004500
0.0004600
0.0004700
0.0004800
0.0004900
0.0005000
0.0005100
0.0005200
0.0005300
0.0005400
0.0005500
0.0005600
0.0005700
0.0005800
0.0005900
0.0006000
0.0006100
0.0006200
0.0006300
0.0006400
0.0006500
0.0006600
0.0006700
0.0006800
0.0006900
0.0007000
0.0007100
0.0007200
0.0007300
0.0007400
0.0007500
0.0007600
0.0007700
0.0007800
0.0007900
0.0008000

